<svg width="21" height="21" viewBox="0 0 21 21" fill="none" xmlns="http://www.w3.org/2000/svg">
<path fill-rule="evenodd" clip-rule="evenodd" d="M20.8848 10.5C20.8848 16.2986 16.4073 21 10.8848 21C5.36227 21 0.884766 16.2986 0.884766 10.5C0.884766 4.70138 5.36227 0 10.8848 0C16.4073 0 20.8848 4.70138 20.8848 10.5ZM11.2431 7.75163C10.2706 8.176 8.32643 9.05538 5.41143 10.3889C4.9381 10.5866 4.68977 10.78 4.66727 10.969C4.62893 11.2893 5.0106 11.4153 5.52893 11.5859C5.59977 11.6095 5.6731 11.6331 5.7481 11.6594C6.25893 11.8335 6.9456 12.0374 7.30227 12.0452C7.62643 12.0522 7.9881 11.9123 8.38727 11.6253C11.1106 9.69413 12.5164 8.7185 12.6048 8.6975C12.6673 8.68262 12.7539 8.66337 12.8123 8.7185C12.8706 8.77275 12.8648 8.876 12.8589 8.904C12.8206 9.07287 11.3256 10.5333 10.5506 11.2893C10.3089 11.5246 10.1381 11.6918 10.1031 11.7303C10.0248 11.8151 9.94477 11.8965 9.8681 11.9744C9.3931 12.4539 9.0381 12.8144 9.8881 13.4024C10.2964 13.685 10.6231 13.9186 10.9489 14.1514C11.3048 14.406 11.6598 14.6597 12.1198 14.9765C12.2364 15.057 12.3481 15.1401 12.4573 15.2215C12.8714 15.5321 13.2439 15.8104 13.7039 15.7666C13.9706 15.7404 14.2473 15.477 14.3873 14.6904C14.7181 12.8301 15.3698 8.80163 15.5206 7.14088C15.5298 7.00299 15.5242 6.86445 15.5039 6.72788C15.4918 6.61756 15.4406 6.51606 15.3606 6.4435C15.2414 6.34112 15.0564 6.31925 14.9731 6.321C14.5973 6.328 14.0206 6.53888 11.2431 7.75163V7.75163Z" fill="#5814B1"/>
</svg>
