<svg width="19" height="19" viewBox="0 0 19 19" fill="none" xmlns="http://www.w3.org/2000/svg">
<path d="M13.4036 1.23096L9.26905 5.36548L5.13452 1.23096M13.4036 17.7691H16.5045C16.7786 17.7691 17.0415 17.6602 17.2354 17.4663C17.4292 17.2725 17.5381 17.0096 17.5381 16.7354V2.26459C17.5381 1.99045 17.4292 1.72754 17.2354 1.5337C17.0415 1.33986 16.7786 1.23096 16.5045 1.23096H13.4036V17.7691ZM2.03363 17.7691H5.13452V1.23096H2.03363C1.75949 1.23096 1.49659 1.33986 1.30274 1.5337C1.1089 1.72754 1 1.99045 1 2.26459V16.7354C1 17.0096 1.1089 17.2725 1.30274 17.4663C1.49659 17.6602 1.75949 17.7691 2.03363 17.7691Z" stroke="#5814B1" stroke-width="2" stroke-linecap="round" stroke-linejoin="round"/>
<path d="M1 3.81494L9.26905 11.5672L17.5381 3.81494" stroke="#5814B1" stroke-width="2" stroke-linecap="round" stroke-linejoin="round"/>
</svg>
