<svg width="201" height="21" viewBox="0 0 201 21" fill="none" xmlns="http://www.w3.org/2000/svg">
<path d="M13.4036 2.23096L9.26905 6.36548L5.13452 2.23096M13.4036 18.7691H16.5045C16.7786 18.7691 17.0415 18.6602 17.2354 18.4663C17.4292 18.2725 17.5381 18.0096 17.5381 17.7354V3.26459C17.5381 2.99045 17.4292 2.72754 17.2354 2.5337C17.0415 2.33986 16.7786 2.23096 16.5045 2.23096H13.4036V18.7691ZM2.03363 18.7691H5.13452V2.23096H2.03363C1.75949 2.23096 1.49659 2.33986 1.30274 2.5337C1.1089 2.72754 1 2.99045 1 3.26459V17.7354C1 18.0096 1.1089 18.2725 1.30274 18.4663C1.49659 18.6602 1.75949 18.7691 2.03363 18.7691Z" stroke="#5814B1" stroke-width="2" stroke-linecap="round" stroke-linejoin="round"/>
<path d="M1 4.81494L9.26905 12.5672L17.5381 4.81494" stroke="#5814B1" stroke-width="2" stroke-linecap="round" stroke-linejoin="round"/>
<path d="M53.1533 1.3125C48.0797 1.3125 43.9658 5.42637 43.9658 10.5C43.9658 15.5736 48.0797 19.6875 53.1533 19.6875C58.227 19.6875 62.3408 15.5736 62.3408 10.5C62.3408 5.42637 58.227 1.3125 53.1533 1.3125ZM57.5687 8.23799C57.5748 8.33438 57.5748 8.43486 57.5748 8.5333C57.5748 11.5438 55.282 15.0117 51.0923 15.0117C49.8003 15.0117 48.6026 14.6364 47.5937 13.9904C47.7782 14.0109 47.9546 14.0191 48.1433 14.0191C49.2097 14.0191 50.1899 13.6582 50.9713 13.0471C49.9705 13.0266 49.1297 12.3703 48.8426 11.468C49.1933 11.5192 49.5091 11.5192 49.87 11.427C49.3547 11.3223 48.8915 11.0424 48.5592 10.6349C48.2268 10.2274 48.0458 9.71744 48.0469 9.1916V9.16289C48.3483 9.33311 48.7031 9.4377 49.0743 9.45205C48.7623 9.24409 48.5064 8.96235 48.3293 8.6318C48.1522 8.30125 48.0594 7.93212 48.0592 7.55713C48.0592 7.13262 48.1699 6.74502 48.3688 6.40869C48.9408 7.1128 49.6545 7.68867 50.4636 8.09887C51.2728 8.50908 52.1591 8.74444 53.0651 8.78965C52.7432 7.24131 53.8998 5.98828 55.2902 5.98828C55.9465 5.98828 56.5371 6.26309 56.9534 6.70605C57.4682 6.60967 57.9604 6.41689 58.3992 6.1585C58.229 6.68555 57.8722 7.13057 57.3984 7.41152C57.8578 7.3623 58.3008 7.23516 58.7109 7.05674C58.4013 7.51201 58.0137 7.91602 57.5687 8.23799V8.23799Z" fill="#5814B1"/>
<path fill-rule="evenodd" clip-rule="evenodd" d="M88.7695 10.5586C88.7695 15.7789 92.5609 20.1197 97.5195 21V13.4164H94.8945V10.5H97.5195V8.16638C97.5195 5.54138 99.2109 4.08362 101.603 4.08362C102.361 4.08362 103.178 4.2 103.936 4.31638V7H102.595C101.311 7 101.02 7.64137 101.02 8.45862V10.5H103.82L103.353 13.4164H101.02V21C105.978 20.1197 109.77 15.7798 109.77 10.5586C109.77 4.75125 105.045 0 99.2695 0C93.4945 0 88.7695 4.75125 88.7695 10.5586Z" fill="#5814B1"/>
<path fill-rule="evenodd" clip-rule="evenodd" d="M154.885 10.5C154.885 16.2986 150.407 21 144.885 21C139.362 21 134.885 16.2986 134.885 10.5C134.885 4.70138 139.362 0 144.885 0C150.407 0 154.885 4.70138 154.885 10.5ZM145.243 7.75163C144.271 8.176 142.326 9.05538 139.411 10.3889C138.938 10.5866 138.69 10.78 138.667 10.969C138.629 11.2893 139.011 11.4153 139.529 11.5859C139.6 11.6095 139.673 11.6331 139.748 11.6594C140.259 11.8335 140.946 12.0374 141.302 12.0452C141.626 12.0522 141.988 11.9123 142.387 11.6253C145.111 9.69413 146.516 8.7185 146.605 8.6975C146.667 8.68262 146.754 8.66337 146.812 8.7185C146.871 8.77275 146.865 8.876 146.859 8.904C146.821 9.07287 145.326 10.5333 144.551 11.2893C144.309 11.5246 144.138 11.6918 144.103 11.7303C144.025 11.8151 143.945 11.8965 143.868 11.9744C143.393 12.4539 143.038 12.8144 143.888 13.4024C144.296 13.685 144.623 13.9186 144.949 14.1514C145.305 14.406 145.66 14.6597 146.12 14.9765C146.236 15.057 146.348 15.1401 146.457 15.2215C146.871 15.5321 147.244 15.8104 147.704 15.7666C147.971 15.7404 148.247 15.477 148.387 14.6904C148.718 12.8301 149.37 8.80163 149.521 7.14088C149.53 7.00299 149.524 6.86445 149.504 6.72788C149.492 6.61756 149.441 6.51606 149.361 6.4435C149.241 6.34112 149.056 6.31925 148.973 6.321C148.597 6.328 148.021 6.53888 145.243 7.75163V7.75163Z" fill="#5814B1"/>
<path fill-rule="evenodd" clip-rule="evenodd" d="M186.532 0.93275C187.558 0.8855 187.886 0.875 190.5 0.875C193.114 0.875 193.442 0.886375 194.467 0.93275C195.493 0.979125 196.193 1.14275 196.805 1.37988C197.447 1.62225 198.028 2.00112 198.51 2.49112C199 2.9715 199.378 3.5525 199.619 4.19475C199.857 4.80725 200.02 5.50725 200.067 6.531C200.115 7.55913 200.125 7.88638 200.125 10.5C200.125 13.1145 200.114 13.4417 200.067 14.4681C200.021 15.4919 199.857 16.1919 199.619 16.8044C199.378 17.4467 198.999 18.0287 198.51 18.5097C198.028 18.9997 197.447 19.3778 196.805 19.6193C196.193 19.8573 195.493 20.02 194.469 20.0673C193.442 20.1145 193.114 20.125 190.5 20.125C187.886 20.125 187.558 20.1136 186.532 20.0673C185.508 20.0209 184.808 19.8573 184.196 19.6193C183.553 19.3777 182.971 18.9991 182.49 18.5097C182.001 18.0291 181.622 17.4474 181.38 16.8052C181.143 16.1927 180.98 15.4927 180.933 14.469C180.885 13.4409 180.875 13.1136 180.875 10.5C180.875 7.8855 180.886 7.55825 180.933 6.53275C180.979 5.50725 181.143 4.80725 181.38 4.19475C181.622 3.55257 182.001 2.9709 182.491 2.49025C182.972 2.00069 183.553 1.62176 184.195 1.37988C184.807 1.14275 185.507 0.98 186.531 0.93275H186.532ZM194.389 2.66525C193.374 2.61888 193.07 2.60925 190.5 2.60925C187.93 2.60925 187.626 2.61888 186.611 2.66525C185.672 2.70813 185.163 2.86475 184.823 2.99687C184.374 3.17187 184.053 3.37925 183.716 3.71613C183.397 4.0268 183.151 4.405 182.997 4.823C182.865 5.1625 182.708 5.67175 182.665 6.61062C182.619 7.62562 182.609 7.93012 182.609 10.5C182.609 13.0699 182.619 13.3744 182.665 14.3894C182.708 15.3282 182.865 15.8375 182.997 16.177C183.151 16.5944 183.397 16.9733 183.716 17.2839C184.027 17.6033 184.406 17.8491 184.823 18.0031C185.163 18.1353 185.672 18.2919 186.611 18.3348C187.626 18.3811 187.929 18.3907 190.5 18.3907C193.071 18.3907 193.374 18.3811 194.389 18.3348C195.328 18.2919 195.838 18.1353 196.177 18.0031C196.626 17.8281 196.947 17.6208 197.284 17.2839C197.603 16.9733 197.849 16.5944 198.003 16.177C198.135 15.8375 198.292 15.3282 198.335 14.3894C198.381 13.3744 198.391 13.0699 198.391 10.5C198.391 7.93012 198.381 7.62562 198.335 6.61062C198.292 5.67175 198.135 5.1625 198.003 4.823C197.828 4.37413 197.621 4.053 197.284 3.71613C196.973 3.39681 196.595 3.15106 196.177 2.99687C195.838 2.86475 195.328 2.70813 194.389 2.66525V2.66525ZM189.271 13.4671C189.957 13.7529 190.722 13.7915 191.434 13.5763C192.145 13.361 192.76 12.9053 193.174 12.287C193.587 11.6686 193.773 10.926 193.699 10.186C193.626 9.44592 193.297 8.75435 192.771 8.22937C192.435 7.89379 192.029 7.63684 191.582 7.477C191.135 7.31717 190.658 7.25844 190.185 7.30504C189.713 7.35164 189.257 7.5024 188.85 7.74649C188.442 7.99057 188.094 8.3219 187.831 8.71662C187.567 9.11134 187.394 9.55963 187.324 10.0292C187.254 10.4988 187.29 10.978 187.427 11.4323C187.565 11.8866 187.802 12.3048 188.121 12.6566C188.439 13.0085 188.832 13.2853 189.271 13.4671ZM187.002 7.00175C187.461 6.54235 188.007 6.17794 188.607 5.92932C189.207 5.68069 189.85 5.55273 190.5 5.55273C191.15 5.55273 191.793 5.68069 192.393 5.92932C192.993 6.17794 193.539 6.54235 193.998 7.00175C194.458 7.46115 194.822 8.00653 195.071 8.60676C195.319 9.20699 195.447 9.85031 195.447 10.5C195.447 11.1497 195.319 11.793 195.071 12.3932C194.822 12.9935 194.458 13.5389 193.998 13.9983C193.07 14.926 191.812 15.4473 190.5 15.4473C189.188 15.4473 187.93 14.926 187.002 13.9983C186.074 13.0705 185.553 11.8121 185.553 10.5C185.553 9.1879 186.074 7.92954 187.002 7.00175V7.00175ZM196.545 6.2895C196.658 6.18211 196.749 6.05297 196.813 5.90973C196.876 5.76648 196.909 5.61205 196.911 5.45556C196.914 5.29908 196.885 5.14373 196.826 4.99871C196.767 4.85369 196.68 4.72195 196.569 4.61128C196.458 4.50062 196.327 4.41329 196.182 4.35445C196.037 4.29562 195.881 4.26648 195.725 4.26876C195.568 4.27104 195.414 4.3047 195.271 4.36773C195.127 4.43077 194.998 4.52191 194.891 4.63575C194.682 4.85715 194.568 5.15123 194.572 5.45556C194.576 5.7599 194.699 6.05052 194.915 6.26574C195.13 6.48096 195.42 6.60382 195.725 6.60826C196.029 6.6127 196.323 6.49835 196.545 6.2895V6.2895Z" fill="#5814B1"/>
</svg>
