<svg width="36" height="36" viewBox="0 0 36 36" fill="none" xmlns="http://www.w3.org/2000/svg">
<mask id="mask0_147_298" style="mask-type:alpha" maskUnits="userSpaceOnUse" x="0" y="0" width="36" height="36">
<path d="M36 18C36 27.9411 27.9411 36 18 36C8.05888 36 0 27.9411 0 18C0 8.05888 8.05888 0 18 0C27.9411 0 36 8.05888 36 18Z" fill="#D9D9D9"/>
</mask>
<g mask="url(#mask0_147_298)">
<path d="M12.5509 17.2843C6.42983 14.2018 -4.71512 15.9999 -9.52246 17.2843L-5.77934 39.1375L39.2482 41.2293C42.8629 34.4219 49.6518 20.3449 47.8904 18.4953C45.6885 16.1834 35.7803 15.1926 27.6885 19.266C21.2152 22.5247 15.3032 18.6704 12.5509 17.2843Z" fill="#FFFA85"/>
</g>
</svg>
