<svg width="41" height="40" viewBox="0 0 41 40" fill="none" xmlns="http://www.w3.org/2000/svg">
<path d="M10.5 15.9375C10.5 16.5058 10.7258 17.0509 11.1276 17.4527C11.5295 17.8546 12.0745 18.0804 12.6429 18.0804C13.2112 18.0804 13.7562 17.8546 14.1581 17.4527C14.5599 17.0509 14.7857 16.5058 14.7857 15.9375C14.7857 15.3692 14.5599 14.8241 14.1581 14.4223C13.7562 14.0204 13.2112 13.7946 12.6429 13.7946C12.0745 13.7946 11.5295 14.0204 11.1276 14.4223C10.7258 14.8241 10.5 15.3692 10.5 15.9375ZM26.2143 15.9375C26.2143 16.5058 26.4401 17.0509 26.8419 17.4527C27.2438 17.8546 27.7888 18.0804 28.3571 18.0804C28.9255 18.0804 29.4705 17.8546 29.8724 17.4527C30.2742 17.0509 30.5 16.5058 30.5 15.9375C30.5 15.3692 30.2742 14.8241 29.8724 14.4223C29.4705 14.0204 28.9255 13.7946 28.3571 13.7946C27.7888 13.7946 27.2438 14.0204 26.8419 14.4223C26.4401 14.8241 26.2143 15.3692 26.2143 15.9375ZM20.5 0C9.45536 0 0.5 8.95536 0.5 20C0.5 31.0446 9.45536 40 20.5 40C31.5446 40 40.5 31.0446 40.5 20C40.5 8.95536 31.5446 0 20.5 0ZM32.2411 31.7411C30.7143 33.2679 28.9375 34.4643 26.9598 35.3036C24.9196 36.1696 22.7455 36.6071 20.5 36.6071C18.2545 36.6071 16.0804 36.1696 14.0357 35.3036C12.061 34.4696 10.2673 33.2597 8.75446 31.7411C7.22768 30.2143 6.03125 28.4375 5.19196 26.4598C4.33036 24.4196 3.89286 22.2455 3.89286 20C3.89286 17.7545 4.33036 15.5804 5.19643 13.5357C6.03039 11.561 7.24034 9.76733 8.75893 8.25446C10.2857 6.72768 12.0625 5.53125 14.0402 4.69196C16.0804 3.83036 18.2545 3.39286 20.5 3.39286C22.7455 3.39286 24.9196 3.83036 26.9643 4.69643C28.939 5.53039 30.7327 6.74034 32.2455 8.25893C33.7723 9.78571 34.9688 11.5625 35.808 13.5402C36.6696 15.5804 37.1071 17.7545 37.1071 20C37.1071 22.2455 36.6696 24.4196 35.8036 26.4643C34.9706 28.4382 33.7605 30.2306 32.2411 31.7411ZM27.2857 20.9375H25.1384C24.9509 20.9375 24.7902 21.0804 24.7768 21.2679C24.6071 23.4777 22.7545 25.2232 20.5 25.2232C18.2455 25.2232 16.3884 23.4777 16.2232 21.2679C16.2098 21.0804 16.0491 20.9375 15.8616 20.9375H13.7143C13.6658 20.9374 13.6179 20.9472 13.5734 20.9663C13.5288 20.9853 13.4886 21.0133 13.4552 21.0483C13.4218 21.0834 13.3959 21.1249 13.379 21.1703C13.3622 21.2158 13.3547 21.2641 13.3571 21.3125C13.5536 25.0759 16.683 28.0804 20.5 28.0804C24.317 28.0804 27.4464 25.0759 27.6429 21.3125C27.6453 21.2641 27.6378 21.2158 27.621 21.1703C27.6041 21.1249 27.5782 21.0834 27.5448 21.0483C27.5114 21.0133 27.4712 20.9853 27.4266 20.9663C27.3821 20.9472 27.3342 20.9374 27.2857 20.9375Z" fill="black"/>
</svg>
