<svg width="22" height="21" viewBox="0 0 22 21" fill="none" xmlns="http://www.w3.org/2000/svg">
<path d="M11.1533 1.3125C6.07969 1.3125 1.96582 5.42637 1.96582 10.5C1.96582 15.5736 6.07969 19.6875 11.1533 19.6875C16.227 19.6875 20.3408 15.5736 20.3408 10.5C20.3408 5.42637 16.227 1.3125 11.1533 1.3125ZM15.5687 8.23799C15.5748 8.33438 15.5748 8.43486 15.5748 8.5333C15.5748 11.5438 13.282 15.0117 9.09229 15.0117C7.80029 15.0117 6.60264 14.6364 5.59365 13.9904C5.77822 14.0109 5.95459 14.0191 6.14326 14.0191C7.20967 14.0191 8.18994 13.6582 8.97129 13.0471C7.97051 13.0266 7.12969 12.3703 6.84258 11.468C7.19326 11.5192 7.50908 11.5192 7.87002 11.427C7.35471 11.3223 6.89154 11.0424 6.55919 10.6349C6.22685 10.2274 6.04582 9.71744 6.04688 9.1916V9.16289C6.34834 9.33311 6.70313 9.4377 7.07432 9.45205C6.76227 9.24409 6.50637 8.96235 6.32929 8.6318C6.15221 8.30125 6.05943 7.93212 6.05918 7.55713C6.05918 7.13262 6.16992 6.74502 6.36885 6.40869C6.94082 7.1128 7.65455 7.68867 8.46365 8.09887C9.27275 8.50908 10.1591 8.74444 11.0651 8.78965C10.7432 7.24131 11.8998 5.98828 13.2902 5.98828C13.9465 5.98828 14.5371 6.26309 14.9534 6.70605C15.4682 6.60967 15.9604 6.41689 16.3992 6.1585C16.229 6.68555 15.8722 7.13057 15.3984 7.41152C15.8578 7.3623 16.3008 7.23516 16.7109 7.05674C16.4013 7.51201 16.0137 7.91602 15.5687 8.23799V8.23799Z" fill="#5814B1"/>
</svg>
